<?xml version="1.0" standalone="no"?>
<!DOCTYPE svg PUBLIC "-//W3C//DTD SVG 20010904//EN"
 "http://www.w3.org/TR/2001/REC-SVG-20010904/DTD/svg10.dtd">
<svg version="1.0" xmlns="http://www.w3.org/2000/svg"
 width="338.000000pt" height="82.000000pt" viewBox="0 0 338.000000 82.000000"
 preserveAspectRatio="xMidYMid meet">
<metadata>
Created by potrace 1.10, written by Peter Selinger 2001-2011
</metadata>
<g transform="translate(0.000000,82.000000) scale(0.050000,-0.050000)"
fill="#fcd03a" stroke="none">
<path d="M601 1502 c-11 -22 -33 -92 -48 -157 -24 -104 -269 -525 -306 -525
-5 0 -27 9 -48 21 -27 14 -39 14 -39 -1 0 -12 13 -26 30 -33 23 -9 15 -28 -39
-92 -56 -64 -66 -88 -50 -118 33 -60 71 -43 138 62 47 72 83 105 137 123 41
13 85 32 99 43 35 28 35 27 59 -161 38 -299 145 -333 144 -44 -1 265 12 312
106 368 82 49 59 96 -25 51 -48 -25 -48 -22 -9 191 38 210 37 223 -10 270 -51
51 -113 51 -139 2z m-113 -596 c-95 -70 -110 -20 -33 110 l55 94 6 -89 c5 -67
-2 -96 -28 -115z"/>
<path d="M1301 1502 c-11 -22 -33 -92 -48 -157 -24 -104 -269 -525 -306 -525
-5 0 -27 9 -48 21 -27 14 -39 14 -39 -1 0 -12 13 -26 30 -33 23 -9 15 -28 -39
-92 -56 -64 -66 -88 -50 -118 33 -60 71 -43 138 62 47 72 83 105 137 123 41
13 85 32 99 43 35 28 35 27 59 -161 39 -306 146 -332 146 -34 0 265 11 302
104 358 82 49 59 96 -25 51 -48 -25 -48 -22 -9 191 38 210 37 223 -10 270 -51
51 -113 51 -139 2z m-113 -596 c-95 -70 -110 -20 -33 110 l55 94 6 -89 c5 -67
-2 -96 -28 -115z"/>
<path d="M4757 1385 c-93 -97 -229 -334 -261 -454 -30 -112 -154 -258 -210
-247 -45 9 -43 165 3 254 21 40 23 62 8 77 -32 32 -111 -10 -126 -67 -15 -61
-155 -208 -198 -208 -27 0 -33 17 -28 83 7 108 -22 114 -90 16 -30 -43 -64
-79 -76 -79 -34 0 44 119 121 183 68 57 69 60 31 88 -102 76 -242 -22 -334
-233 -48 -113 -158 -225 -210 -214 -105 21 41 558 155 572 96 11 138 25 138
47 0 14 -28 19 -79 12 l-78 -11 1 80 c2 152 -100 141 -172 -20 -28 -62 -51
-83 -99 -93 -60 -12 -61 -14 -25 -41 94 -71 -44 -362 -205 -434 l-87 -40 -48
46 c-48 45 -62 125 -31 174 13 20 25 14 50 -24 62 -94 190 72 135 175 -86 161
-273 71 -318 -152 -46 -230 228 -369 386 -195 51 56 63 50 66 -33 10 -260 295
-209 425 77 23 51 24 51 61 14 42 -42 118 -50 152 -16 16 16 42 15 95 -5 64
-23 81 -22 130 6 56 33 57 32 69 -26 24 -123 168 -136 283 -27 68 64 69 64 69
16 0 -262 263 -243 447 33 l33 50 0 -51 c0 -110 146 -156 245 -78 l51 40 -3
-65 c-5 -101 142 -99 176 2 21 63 198 283 227 283 8 0 11 -40 7 -89 -13 -169
145 -249 276 -139 35 30 56 39 50 21 -37 -95 84 -146 165 -69 l47 43 -24 -68
c-13 -38 -53 -105 -88 -149 -104 -129 -149 -216 -149 -288 l0 -67 94 10 c131
15 192 87 226 264 27 145 58 186 213 284 91 58 205 227 152 227 -8 0 -30 -26
-48 -58 -42 -74 -238 -229 -260 -207 -22 22 15 135 69 212 60 87 9 125 -59 43
-180 -217 -216 -254 -223 -233 -19 59 193 343 257 343 60 0 61 31 3 73 -124
91 -191 60 -307 -145 -147 -260 -282 -297 -273 -73 8 208 -45 226 -192 63
-111 -123 -127 -119 -73 20 52 130 51 151 -3 201 l-44 42 -108 -212 c-174
-339 -365 -362 -231 -28 69 173 -43 151 -138 -28 -112 -212 -287 -354 -323
-261 -44 116 -9 234 139 469 196 308 172 501 -34 284z m46 -170 c-92 -179
-137 -248 -153 -232 -18 19 111 308 163 364 83 90 80 43 -10 -132z m-1333 46
c-14 -63 -50 -85 -50 -30 0 40 40 116 54 102 5 -6 4 -38 -4 -72z m-30 -129 c0
-19 -79 -192 -88 -192 -8 0 15 105 38 175 8 23 50 37 50 17z m-440 -143 c0
-32 -45 -89 -71 -89 -35 0 -38 43 -5 76 25 25 76 33 76 13z m3073 -699 c-35
-130 -45 -146 -76 -115 -17 17 -9 52 32 135 68 138 83 131 44 -20z"/>
<path d="M2232 1390 c-169 -35 -176 -42 -168 -152 6 -90 22 -101 100 -68 28
11 19 -31 -48 -233 -93 -282 -98 -290 -178 -307 -99 -22 -168 -150 -94 -175
179 -59 665 280 796 556 159 333 15 466 -408 379z m361 -217 c62 -61 -304
-473 -421 -473 -46 0 -16 140 92 424 25 67 274 105 329 49z"/>
<path d="M4244 1150 c-20 -44 -18 -50 14 -50 45 0 91 50 73 79 -23 36 -64 23
-87 -29z"/>
<path d="M5081 1161 c-29 -53 -27 -61 18 -61 40 0 90 65 67 87 -25 25 -65 13
-85 -26z"/>
</g>
</svg>
